<svg width="199" height="49" viewBox="0 0 199 49" fill="none" xmlns="http://www.w3.org/2000/svg">
<g clip-path="url(#clip0_104_25)">
<path d="M40.3333 3H7.66667C5.1 3 3 5.1 3 7.66667V40.3333C3 42.9 5.1 45 7.66667 45H40.3333C42.9 45 45 42.9 45 40.3333V7.66667C45 5.1 42.9 3 40.3333 3ZM28.6667 35.6667H12.3333V31H28.6667V35.6667ZM35.6667 26.3333H12.3333V21.6667H35.6667V26.3333ZM35.6667 17H12.3333V12.3333H35.6667V17Z" fill="#016A70"/>
</g>
<path d="M69.64 39L82.12 11H88.52L101.04 39H94.24L84 14.28H86.56L76.28 39H69.64ZM75.88 33L77.6 28.08H92L93.76 33H75.88ZM102.705 39V17.48H108.665V23.56L107.825 21.8C108.465 20.28 109.492 19.1333 110.905 18.36C112.318 17.56 114.038 17.16 116.065 17.16V22.92C115.798 22.8933 115.558 22.88 115.345 22.88C115.132 22.8533 114.905 22.84 114.665 22.84C112.958 22.84 111.572 23.3333 110.505 24.32C109.465 25.28 108.945 26.7867 108.945 28.84V39H102.705ZM128.518 39.32C125.984 39.32 124.011 38.68 122.598 37.4C121.184 36.0933 120.478 34.16 120.478 31.6V12.72H126.718V31.52C126.718 32.4267 126.958 33.1333 127.438 33.64C127.918 34.12 128.571 34.36 129.398 34.36C130.384 34.36 131.224 34.0933 131.918 33.56L133.598 37.96C132.958 38.4133 132.184 38.76 131.278 39C130.398 39.2133 129.478 39.32 128.518 39.32ZM117.158 22.76V17.96H132.078V22.76H117.158ZM136.3 39V17.48H142.54V39H136.3ZM139.42 14.48C138.274 14.48 137.34 14.1467 136.62 13.48C135.9 12.8133 135.54 11.9867 135.54 11C135.54 10.0133 135.9 9.18667 136.62 8.52C137.34 7.85333 138.274 7.52 139.42 7.52C140.567 7.52 141.5 7.84 142.22 8.48C142.94 9.09333 143.3 9.89333 143.3 10.88C143.3 11.92 142.94 12.7867 142.22 13.48C141.527 14.1467 140.594 14.48 139.42 14.48ZM157.652 47.08C155.625 47.08 153.665 46.8267 151.772 46.32C149.905 45.84 148.345 45.1067 147.092 44.12L149.572 39.64C150.478 40.3867 151.625 40.9733 153.012 41.4C154.425 41.8533 155.812 42.08 157.172 42.08C159.385 42.08 160.985 41.5867 161.972 40.6C162.985 39.6133 163.492 38.1467 163.492 36.2V32.96L163.892 27.56L163.812 22.12V17.48H169.732V35.4C169.732 39.4 168.692 42.3467 166.612 44.24C164.532 46.1333 161.545 47.08 157.652 47.08ZM156.692 37.96C154.692 37.96 152.878 37.5333 151.252 36.68C149.652 35.8 148.358 34.5867 147.372 33.04C146.412 31.4667 145.932 29.64 145.932 27.56C145.932 25.4533 146.412 23.6267 147.372 22.08C148.358 20.5067 149.652 19.2933 151.252 18.44C152.878 17.5867 154.692 17.16 156.692 17.16C158.505 17.16 160.105 17.5333 161.492 18.28C162.878 19 163.958 20.1333 164.732 21.68C165.505 23.2 165.892 25.16 165.892 27.56C165.892 29.9333 165.505 31.8933 164.732 33.44C163.958 34.96 162.878 36.0933 161.492 36.84C160.105 37.5867 158.505 37.96 156.692 37.96ZM157.932 32.84C159.025 32.84 159.998 32.6267 160.852 32.2C161.705 31.7467 162.372 31.12 162.852 30.32C163.332 29.52 163.572 28.6 163.572 27.56C163.572 26.4933 163.332 25.5733 162.852 24.8C162.372 24 161.705 23.3867 160.852 22.96C159.998 22.5067 159.025 22.28 157.932 22.28C156.838 22.28 155.865 22.5067 155.012 22.96C154.158 23.3867 153.478 24 152.972 24.8C152.492 25.5733 152.252 26.4933 152.252 27.56C152.252 28.6 152.492 29.52 152.972 30.32C153.478 31.12 154.158 31.7467 155.012 32.2C155.865 32.6267 156.838 32.84 157.932 32.84ZM184.979 39.32C182.686 39.32 180.646 38.84 178.859 37.88C177.099 36.92 175.699 35.6133 174.659 33.96C173.646 32.28 173.139 30.3733 173.139 28.24C173.139 26.08 173.646 24.1733 174.659 22.52C175.699 20.84 177.099 19.5333 178.859 18.6C180.646 17.64 182.686 17.16 184.979 17.16C187.246 17.16 189.273 17.64 191.059 18.6C192.846 19.5333 194.246 20.8267 195.259 22.48C196.273 24.1333 196.779 26.0533 196.779 28.24C196.779 30.3733 196.273 32.28 195.259 33.96C194.246 35.6133 192.846 36.92 191.059 37.88C189.273 38.84 187.246 39.32 184.979 39.32ZM184.979 34.2C186.019 34.2 186.953 33.96 187.779 33.48C188.606 33 189.259 32.32 189.739 31.44C190.219 30.5333 190.459 29.4667 190.459 28.24C190.459 26.9867 190.219 25.92 189.739 25.04C189.259 24.16 188.606 23.48 187.779 23C186.953 22.52 186.019 22.28 184.979 22.28C183.939 22.28 183.006 22.52 182.179 23C181.353 23.48 180.686 24.16 180.179 25.04C179.699 25.92 179.459 26.9867 179.459 28.24C179.459 29.4667 179.699 30.5333 180.179 31.44C180.686 32.32 181.353 33 182.179 33.48C183.006 33.96 183.939 34.2 184.979 34.2Z" fill="#016A70"/>
<defs>
<clipPath id="clip0_104_25">
<rect width="48" height="48" fill="white" transform="translate(0 0.5)"/>
</clipPath>
</defs>
</svg>
